<svg version="1.0" xmlns="http://www.w3.org/2000/svg" width="933.333" height="933.333" viewBox="0 0 700 700"><path d="M254 45.6c-4.2 1.8-8.6 5.9-10.7 9.8-.8 1.6-5.5 14.6-10.5 29-4.9 14.3-10.7 31-12.8 37.1-2.1 6-6.3 18.2-9.3 27-3.1 8.8-9.5 27.2-14.2 41-4.8 13.7-10.6 30.6-13 37.5-2.4 6.9-8 23.1-12.5 36-4.5 12.9-8.8 25.3-9.5 27.5-.7 2.2-4.5 13.2-8.5 24.5-3.9 11.3-7.7 22.3-8.5 24.5-.7 2.2-5 14.6-9.5 27.5s-10.6 30.5-13.5 39c-8.8 25.4-13.9 40.3-22 63.5-4.2 12.1-8.3 23.8-9 26-.7 2.2-4.7 13.7-8.8 25.5-4.1 11.8-8.9 25.8-10.7 31-1.7 5.2-3.5 10.4-4 11.5-.5 1.1-1.8 4.9-3 8.5-1.2 3.6-5.8 16.8-10.2 29.5-10 28.8-9.8 28.2-9.9 33-.4 15.1 16.7 26.1 30.6 19.6 8.1-3.8 9.9-6.9 18.2-30.6l3.8-11H159c34.4 0 63.2.1 64.2.3 1.4.3 1.3 1.3-1.3 9-3.3 9.9-3.6 16-1 21.7 7.6 16.4 30.8 16.7 39.1.5 1-1.9 4.7-12.1 8.3-22.5C271.9 611 279 590.6 284 576c5-14.6 11.6-33.5 14.5-42 2.9-8.5 8.3-24.1 12-34.5 3.6-10.5 7.9-22.8 9.5-27.5 3.3-9.7 8.6-24.9 19.5-56.5 4.3-12.1 8.2-23.5 8.8-25.3 1-3 2.7-4.4 2.7-2.1 0 .9 6.6 20.2 19.5 56.9 1.8 5.2 7.4 21.2 12.3 35.5 5 14.3 12.9 37 17.5 50.5 25.8 74.2 34.1 98.2 36.4 105 3.8 11.1 6.5 14.6 14 18.1 13.8 6.5 30.5-4.2 30.4-19.4 0-4.2-6-22.3-31.1-93.7-3.3-9.6-6.3-18.2-6.5-19-.2-.8-4.8-14.3-10.3-30-9.6-27.1-13.4-38.1-23.8-68.3-2.5-7.2-6-17.5-7.9-22.7-1.8-5.2-5.3-15.4-7.8-22.5-2.5-7.2-8.2-23.5-12.6-36.2L373 319l5-14.7c2.8-8.2 6.7-19.3 8.6-24.8 2-5.5 6.2-17.7 9.4-27 3.2-9.4 9.7-28.3 14.5-42 4.8-13.8 9-26.1 9.5-27.5 1.4-4.4 15.8-45.4 16.8-48 .9-2.5 1-2.5 2 1 .6 1.9 4.7 14.1 9.2 27 7.6 21.9 18.8 54.1 31.5 91 3 8.5 8.1 23.3 11.4 32.9 3.4 9.5 6.1 17.8 6.1 18.5 0 .8-10.5 1.1-38.3 1.1h-38.2l-4.6 2.7c-2.5 1.5-5.9 4.6-7.5 7-2.6 3.8-2.9 5.2-2.9 11.9 0 6.6.4 8.1 2.8 11.7 1.5 2.3 4.6 5.4 7 6.9l4.2 2.8 46.6.3c43.1.3 46.7.4 47.2 2 .3.9 3.7 10.7 7.5 21.8l7 20.1h-36.2c-34.1 0-36.5.2-40.7 2-16.6 7.5-17.9 29.7-2.2 38.9l4.8 2.8 44.2.1c27.4 0 44.6.4 45.2 1 .8.9 4.2 10.3 13.1 36.5 1 3 1.7 5.6 1.6 5.8-.2.1-16.7.3-36.7.4-31.6 0-37 .3-40.7 1.7-11.8 4.6-17.3 17.7-12.2 28.8 2.1 4.8 3.9 6.9 9 10.4l3.5 2.4 46.5.3 46.5.3 7.3 21.3c3.9 11.7 7.2 21.5 7.2 21.8 0 .4-16.8.6-37.4.6-26.7 0-38.5.4-41.5 1.3-5.5 1.6-11.8 8.1-13.5 13.9-3.6 12.2 2.8 24 14.7 27.4 3 .9 17.1 1.2 48.8 1.2l44.7-.1L609 628c6.8 20 8.2 22.1 16.7 26.1 14 6.5 30.8-4.3 30.5-19.7-.1-2.2-2.1-9.9-4.6-17-7.4-21.7-46-133-52.7-152.4-2.2-6.3-5.4-15.6-7-20.5-1.6-5-3.4-9.9-3.8-11-.5-1.1-2.2-5.6-3.6-10-1.5-4.4-4.3-12.5-6.2-18-1.9-5.5-5.9-17-8.8-25.5-6.1-17.6-9.7-28-22-63.5-4.8-13.8-11.1-32-14-40.5-5.6-16.3-18.5-53.6-26.2-75.5-2.4-7.2-6.9-20-9.8-28.5-8.3-24.1-21.2-61.2-26-75-2.4-6.9-6.6-19.3-9.5-27.5-3.8-11.2-5.9-15.8-8.3-18.4-10.4-11-28.6-8.8-35.4 4.4-.9 1.6-4 9.9-6.9 18.5-14.1 41.2-19.4 56.3-19.8 56.8-.4.3-116.3.6-126.5.3-1.8-.1-2.2-.5-1.6-1.9.4-.9 3.3-9.4 6.6-18.7 3.2-9.4 7.7-22.2 9.9-28.5 6-16.8 5.3-24.6-2.7-32.2-5.9-5.6-15.9-7.4-23.3-4.2zM376 176c0 .5-.4 1.9-.9 3.2-.6 1.3-3.3 9-6.1 17.3-2.8 8.2-5.8 16.6-6.6 18.6l-1.6 3.7H232.9l.7-2.1c.6-2.3 12-35.4 13.5-39.5l.9-2.2h64c39.9 0 64 .4 64 1zm-30.3 88c-2 6.5-14.1 40.7-14.8 41.4-1.2 1.4-127.9 1.4-127.9 0 0-.9 11.1-33.6 13.8-40.4l1-2.5h64.1c56.6 0 64.2.2 63.8 1.5zm-36.3 104.7c-3.6 10.4-7 20.2-7.5 21.9l-.9 3.1H172.2l7.4-21.5c4.1-11.8 7.4-21.6 7.4-21.8 0-.2 29-.4 64.5-.4h64.4l-6.5 18.7zm-29.7 85.8c-3.3 9.3-6.6 19.1-7.5 21.7l-1.6 4.8-7.5.1c-28.2.2-120.4-.1-120.7-.4-.3-.3 5.3-17.1 12.1-36.2l2.5-7h128.6l-5.9 17zm-25.3 72.7c-.4 1.3-3.7 11.1-7.4 21.8l-6.7 19.5-64.2.1-64.1.1.5-2.1c.4-1.1 3.6-11 7.3-21.8l6.7-19.8h128.6l-.7 2.2z"/></svg>